<?xml version="1.0" encoding="utf-8"?>
<!-- Generator: Adobe Illustrator 15.0.0, SVG Export Plug-In . SVG Version: 6.00 Build 0)  -->
<!DOCTYPE svg PUBLIC "-//W3C//DTD SVG 1.1//EN" "http://www.w3.org/Graphics/SVG/1.1/DTD/svg11.dtd">
<svg version="1.1" id="Layer_1" xmlns="http://www.w3.org/2000/svg" xmlns:xlink="http://www.w3.org/1999/xlink" x="0px" y="0px"
	 width="7px" height="10px" viewBox="0 0 7 10" enable-background="new 0 0 7 10" xml:space="preserve">
<g>
	<path fill="#FFFFFF" d="M6.595,1.706L3.301,5l3.294,3.294c0.079,0.079,0.118,0.172,0.118,0.279s-0.04,0.201-0.118,0.279
		L5.566,9.882C5.487,9.961,5.394,10,5.287,10S5.086,9.961,5.008,9.882L0.405,5.279C0.326,5.201,0.287,5.107,0.287,5
		s0.04-0.2,0.118-0.279l4.603-4.603C5.086,0.04,5.179,0,5.287,0s0.201,0.04,0.279,0.118l1.029,1.03
		c0.079,0.078,0.118,0.171,0.118,0.279C6.713,1.535,6.674,1.627,6.595,1.706z"/>
</g>
</svg>
