<?xml version="1.0" encoding="utf-8"?>
<!-- Generator: Adobe Illustrator 15.0.0, SVG Export Plug-In . SVG Version: 6.00 Build 0)  -->
<!DOCTYPE svg PUBLIC "-//W3C//DTD SVG 1.1//EN" "http://www.w3.org/Graphics/SVG/1.1/DTD/svg11.dtd">
<svg version="1.1" id="Layer_1" xmlns="http://www.w3.org/2000/svg" xmlns:xlink="http://www.w3.org/1999/xlink" x="0px" y="0px"
	 width="7px" height="10px" viewBox="0 0 7 10" enable-background="new 0 0 7 10" xml:space="preserve">
<g>
	<path fill="#FFFFFF" d="M6.596,5.279L1.993,9.882C1.914,9.96,1.821,10,1.714,10c-0.108,0-0.201-0.04-0.28-0.118L0.405,8.853
		C0.326,8.774,0.287,8.681,0.287,8.573s0.04-0.201,0.118-0.279L3.698,5L0.405,1.707C0.326,1.627,0.287,1.535,0.287,1.427
		s0.04-0.201,0.118-0.279l1.029-1.03C1.513,0.04,1.606,0,1.714,0c0.107,0,0.2,0.04,0.279,0.118l4.603,4.603
		C6.674,4.8,6.713,4.893,6.713,5C6.713,5.108,6.674,5.201,6.596,5.279z"/>
</g>
</svg>
