<?xml version="1.0" standalone="no"?>
<!DOCTYPE svg PUBLIC "-//W3C//DTD SVG 20010904//EN"
 "http://www.w3.org/TR/2001/REC-SVG-20010904/DTD/svg10.dtd">
<svg version="1.0" xmlns="http://www.w3.org/2000/svg"
 width="260.000000pt" height="260.000000pt" viewBox="0 0 260.000000 260.000000"
 preserveAspectRatio="xMidYMid meet">
<metadata>
Created by potrace 1.11, written by Peter Selinger 2001-2013
</metadata>
<g transform="translate(0.000000,260.000000) scale(0.100000,-0.100000)"
fill="#000000" stroke="none">
<path d="M1139 2420 c-19 -5 -39 -59 -160 -425 -77 -231 -139 -425 -139 -432
0 -7 -4 -13 -8 -13 -9 0 -16 21 -168 525 l-102 340 -226 1 c-162 1 -226 -2
-223 -10 2 -6 21 -63 41 -126 21 -63 41 -124 46 -135 5 -11 100 -297 211 -635
112 -338 206 -620 210 -625 5 -7 77 -10 190 -10 l183 0 103 295 c56 162 124
357 150 432 26 76 51 134 55 130 5 -6 218 -604 286 -807 l17 -50 183 0 c114 0
186 3 190 10 6 10 469 1396 496 1486 l14 46 -220 -1 -221 -1 -43 -145 c-25
-80 -54 -176 -66 -215 -12 -38 -23 -74 -24 -80 -1 -5 -31 -106 -67 -224 l-65
-213 -148 443 -149 443 -162 0 c-89 1 -172 -1 -184 -4z"/>
<path d="M620 370 l0 -190 680 0 680 0 0 190 0 190 -680 0 -680 0 0 -190z"/>
</g>
</svg>
